<?xml version="1.0" standalone="no"?>
<!DOCTYPE svg PUBLIC "-//W3C//DTD SVG 20010904//EN"
 "http://www.w3.org/TR/2001/REC-SVG-20010904/DTD/svg10.dtd">
<svg version="1.0" xmlns="http://www.w3.org/2000/svg"
 width="826.000000pt" height="645.000000pt" viewBox="0 0 826.000000 645.000000"
 preserveAspectRatio="xMidYMid meet">
<metadata>
Created by potrace 1.16, written by Peter Selinger 2001-2019
</metadata>
<g transform="translate(0.000000,645.000000) scale(0.100000,-0.100000)"
fill="#000000" stroke="none">
<path d="M3687 5064 c-12 -12 4 -24 30 -24 25 0 153 -77 153 -92 0 -4 6 -8 14
-8 7 0 16 -9 19 -20 3 -11 14 -23 25 -27 29 -11 122 -102 122 -119 0 -8 7 -14
15 -14 9 0 20 -11 25 -25 5 -13 27 -36 50 -51 22 -15 40 -32 40 -39 0 -7 17
-30 38 -51 21 -22 49 -55 62 -74 13 -19 32 -41 42 -48 10 -7 18 -21 18 -31 0
-10 7 -24 15 -31 8 -7 15 -22 15 -34 0 -12 10 -32 23 -46 26 -29 53 -82 62
-125 4 -16 15 -55 25 -85 33 -99 45 -200 45 -370 0 -164 -7 -208 -41 -251 -6
-8 -14 -26 -17 -40 -13 -55 -108 -208 -141 -229 -19 -11 -39 -33 -46 -49 -6
-16 -29 -43 -50 -60 -21 -17 -41 -39 -44 -48 -10 -33 -120 -139 -167 -161 -26
-13 -72 -45 -103 -72 -32 -28 -62 -50 -68 -50 -6 0 -28 -16 -49 -35 -21 -19
-66 -48 -99 -65 -33 -17 -60 -35 -60 -40 0 -6 -11 -10 -24 -10 -13 0 -35 -9
-49 -20 -14 -11 -29 -20 -35 -20 -5 0 -20 -8 -33 -19 -13 -10 -86 -51 -163
-90 -76 -40 -158 -85 -182 -101 -23 -17 -48 -30 -54 -30 -11 0 -145 -60 -190
-86 -14 -7 -49 -25 -79 -40 -30 -14 -68 -36 -84 -50 -16 -13 -37 -24 -47 -24
-11 0 -23 -6 -27 -13 -4 -7 -29 -24 -55 -36 -47 -22 -65 -38 -55 -47 8 -8 87
16 87 25 0 5 11 12 25 15 14 4 25 11 25 16 0 6 6 10 13 10 8 0 32 13 54 29 21
15 60 38 86 49 26 12 54 28 63 37 8 8 26 15 39 15 13 0 27 5 30 11 7 11 111
59 128 59 5 0 24 11 42 24 17 13 103 61 191 107 87 45 170 90 183 100 13 11
29 19 36 19 7 0 18 7 25 15 7 8 25 15 41 15 17 0 30 6 34 18 3 9 32 29 63 44
31 15 74 43 95 63 21 19 42 35 48 35 5 0 41 27 80 59 39 33 84 63 100 66 18 4
46 27 75 60 25 30 54 57 65 60 10 4 19 15 19 25 0 9 18 34 40 54 23 20 45 48
50 61 5 14 27 37 49 52 22 16 43 37 47 48 4 11 16 33 28 50 31 44 76 137 76
158 0 10 7 20 15 23 8 4 15 14 15 24 0 10 7 34 15 53 17 42 20 260 5 367 -5
36 -12 85 -16 110 -3 25 -13 61 -22 80 -8 19 -19 51 -23 70 -13 66 -46 141
-68 156 -13 10 -21 26 -21 45 0 16 -6 32 -14 35 -8 3 -17 17 -20 30 -4 14 -20
40 -36 57 -83 91 -120 135 -120 144 0 6 -20 27 -44 47 -25 20 -48 45 -51 56
-3 10 -15 22 -26 25 -10 4 -19 14 -19 24 0 9 -20 32 -44 51 -25 18 -47 39 -50
46 -3 8 -10 14 -16 14 -6 0 -25 15 -43 33 -56 55 -157 117 -192 117 -17 0 -35
-3 -38 -6z"/>
</g>
</svg>
