<?xml version="1.0" standalone="no"?>
<!DOCTYPE svg PUBLIC "-//W3C//DTD SVG 20010904//EN"
 "http://www.w3.org/TR/2001/REC-SVG-20010904/DTD/svg10.dtd">
<svg version="1.0" xmlns="http://www.w3.org/2000/svg"
 width="826.000000pt" height="645.000000pt" viewBox="0 0 826.000000 645.000000"
 preserveAspectRatio="xMidYMid meet">
<metadata>
Created by potrace 1.16, written by Peter Selinger 2001-2019
</metadata>
<g transform="translate(0.000000,645.000000) scale(0.100000,-0.100000)"
fill="#000000" stroke="none">
<path d="M3450 4801 c-8 -5 -47 -12 -86 -15 -40 -4 -102 -18 -139 -31 -38 -14
-84 -25 -103 -25 -33 0 -64 -7 -137 -32 -16 -5 -41 -12 -55 -15 -31 -6 -42
-10 -155 -63 -68 -31 -102 -54 -137 -93 -27 -28 -48 -55 -48 -59 0 -4 -9 -9
-19 -13 -11 -3 -24 -18 -30 -33 -6 -15 -22 -47 -37 -72 -15 -25 -30 -58 -35
-75 -10 -42 -29 -93 -50 -141 -12 -25 -19 -64 -19 -101 0 -32 -4 -63 -10 -69
-5 -5 -13 -49 -16 -97 -4 -48 -11 -90 -16 -93 -4 -3 -8 -130 -8 -282 1 -221 4
-282 15 -302 8 -14 14 -42 15 -62 0 -21 5 -38 10 -38 6 0 10 -7 10 -16 0 -15
38 -102 50 -114 3 -3 12 -18 20 -35 16 -35 107 -125 124 -125 7 0 21 -7 32
-15 10 -8 30 -15 44 -15 14 0 34 -6 45 -14 11 -7 46 -16 77 -19 32 -3 63 -9
70 -14 41 -26 302 -49 691 -58 158 -4 290 -12 293 -16 7 -12 274 -12 274 0 0
4 41 14 90 22 50 7 90 16 90 20 0 4 21 11 47 15 28 4 57 16 72 31 15 13 36 26
49 29 12 4 22 10 22 15 0 5 5 9 10 9 12 0 90 74 90 85 0 4 18 23 40 42 22 20
40 42 40 50 0 7 7 16 15 19 8 4 15 17 15 30 0 13 5 24 10 24 6 0 10 7 10 16 0
9 11 25 25 36 14 11 25 28 25 38 0 9 6 23 14 29 7 6 16 30 19 53 3 23 13 45
21 50 11 6 16 24 16 58 0 30 5 50 13 52 8 3 13 35 15 96 2 51 8 92 14 92 5 0
8 17 6 38 -3 42 -21 50 -26 12 -2 -14 -8 -29 -13 -34 -5 -6 -9 -42 -9 -80 0
-43 -6 -82 -15 -100 -8 -15 -15 -45 -15 -66 0 -24 -5 -40 -14 -43 -8 -3 -18
-23 -21 -44 -10 -53 -43 -121 -66 -134 -10 -5 -19 -17 -20 -27 0 -9 -9 -30
-20 -47 -10 -16 -23 -39 -28 -50 -5 -11 -25 -33 -45 -49 -20 -16 -36 -33 -36
-37 0 -10 -62 -79 -71 -79 -4 0 -34 -18 -67 -39 -32 -22 -76 -43 -98 -47 -21
-3 -43 -10 -49 -14 -5 -4 -44 -13 -85 -20 -41 -6 -84 -16 -96 -22 -11 -5 -66
-7 -125 -4 -57 3 -277 12 -489 20 -212 8 -405 19 -430 25 -25 6 -67 13 -95 17
-27 3 -69 12 -93 20 -23 8 -59 14 -80 14 -20 0 -46 7 -56 15 -11 8 -30 15 -42
15 -13 0 -25 4 -28 9 -3 5 -18 12 -33 16 -31 7 -100 68 -114 100 -5 11 -20 38
-34 60 -30 48 -45 82 -45 100 0 8 -4 17 -10 20 -5 3 -10 21 -10 38 -1 18 -7
43 -15 57 -11 20 -14 79 -15 292 0 147 4 269 8 272 5 3 12 44 16 92 3 48 10
92 15 98 5 6 11 43 13 82 3 43 12 81 22 95 9 13 16 31 16 40 0 9 7 30 15 45 8
16 15 39 15 50 0 12 7 27 15 34 8 7 15 18 15 25 0 7 9 24 20 38 11 14 20 32
20 41 0 9 11 22 25 28 14 6 25 16 25 22 0 7 13 23 28 36 16 14 34 35 41 48 6
12 16 22 22 22 6 0 43 16 83 35 40 19 81 35 90 35 9 0 16 5 16 10 0 6 9 10 21
10 12 0 35 6 52 14 32 14 55 20 157 36 58 9 138 31 156 42 5 4 45 10 87 14 43
4 80 11 83 15 3 5 170 9 372 9 306 0 372 -3 396 -15 15 -8 39 -15 52 -15 12 0
26 -4 29 -10 3 -5 19 -10 34 -10 16 0 34 -6 40 -14 7 -8 26 -18 42 -21 17 -4
33 -13 36 -21 3 -8 11 -14 19 -14 8 0 14 -6 14 -13 0 -7 13 -23 30 -35 16 -12
33 -36 38 -54 7 -30 35 -58 46 -47 14 14 -34 102 -80 146 -52 50 -142 103
-174 103 -11 0 -22 5 -25 10 -3 6 -21 10 -38 10 -18 1 -43 7 -57 15 -20 12
-93 14 -395 14 -203 0 -377 -3 -385 -8z"/>
</g>
</svg>
