<?xml version="1.0" standalone="no"?>
<!DOCTYPE svg PUBLIC "-//W3C//DTD SVG 20010904//EN"
 "http://www.w3.org/TR/2001/REC-SVG-20010904/DTD/svg10.dtd">
<svg version="1.0" xmlns="http://www.w3.org/2000/svg"
 width="826.000000pt" height="645.000000pt" viewBox="0 0 826.000000 645.000000"
 preserveAspectRatio="xMidYMid meet">
<metadata>
Created by potrace 1.16, written by Peter Selinger 2001-2019
</metadata>
<g transform="translate(0.000000,645.000000) scale(0.100000,-0.100000)"
fill="#000000" stroke="none">
<path d="M2957 4334 c-10 -10 -9 -42 1 -46 5 -1 38 -48 75 -104 36 -55 110
-157 164 -226 113 -144 239 -316 369 -502 l92 -131 -66 -62 c-36 -35 -71 -63
-78 -63 -7 0 -19 -10 -25 -22 -14 -27 -60 -78 -70 -78 -7 0 -62 -56 -199 -199
-66 -69 -136 -154 -143 -174 -4 -9 -17 -21 -29 -26 -13 -5 -38 -25 -56 -45
-18 -19 -43 -43 -57 -52 -14 -9 -25 -22 -25 -29 0 -14 -66 -77 -99 -95 -12 -6
-21 -15 -21 -21 0 -6 -22 -36 -50 -68 -27 -32 -50 -61 -50 -64 0 -4 -9 -17
-20 -29 -40 -44 -47 -53 -65 -93 -10 -22 -35 -57 -57 -79 -21 -21 -38 -43 -38
-50 0 -6 -9 -22 -20 -36 -11 -14 -20 -34 -20 -45 0 -11 -6 -30 -14 -41 -8 -11
-16 -40 -17 -64 -3 -36 0 -45 14 -48 14 -3 17 4 17 37 0 23 4 41 10 41 5 0 12
17 15 38 4 20 15 49 26 64 10 15 19 32 19 38 0 5 5 10 10 10 6 0 10 6 10 13 0
7 13 24 29 38 17 15 33 38 37 53 3 14 10 26 15 26 5 0 9 7 9 15 0 8 7 15 15
15 8 0 15 9 15 20 0 11 9 25 20 32 11 7 20 19 20 26 0 7 7 15 15 18 8 4 15 11
15 18 0 6 16 28 35 49 19 21 35 40 35 43 0 10 28 34 39 34 6 0 11 5 11 10 0 6
7 10 15 10 8 0 15 6 15 13 0 7 9 18 20 25 11 7 20 19 20 27 0 8 7 15 15 15 8
0 15 7 15 15 0 8 9 15 20 15 11 0 20 7 20 15 0 21 29 51 57 59 12 4 28 20 35
36 7 17 19 30 25 30 7 0 13 7 13 16 0 9 33 49 73 90 153 158 240 244 247 244
4 0 20 18 35 40 15 22 34 40 41 40 8 0 14 5 14 10 0 6 11 15 24 21 13 6 30 22
37 36 11 20 55 53 72 53 12 0 117 -146 165 -228 30 -53 79 -127 109 -164 29
-37 53 -74 53 -83 0 -17 72 -129 152 -234 26 -35 48 -68 48 -73 0 -5 54 -85
120 -178 65 -92 125 -179 131 -194 7 -14 16 -26 21 -26 5 0 19 -21 30 -47 27
-61 80 -143 93 -143 6 0 19 -19 31 -43 52 -104 60 -117 77 -123 26 -8 33 2 16
23 -17 21 -36 53 -65 110 -12 24 -36 56 -52 73 -17 16 -44 56 -60 89 -16 32
-40 74 -54 92 -14 19 -33 48 -44 66 -10 17 -65 95 -121 173 -57 79 -103 147
-103 152 0 5 -24 41 -53 81 -88 120 -137 195 -137 212 0 9 -24 46 -53 83 -30
37 -80 112 -112 167 -33 55 -86 134 -118 175 -46 58 -56 76 -43 78 9 2 28 23
42 48 16 27 33 44 44 44 10 0 21 8 24 18 6 18 65 62 84 62 6 0 30 18 54 40 24
22 51 42 60 45 9 4 20 15 23 26 4 10 16 24 28 30 12 7 41 27 64 45 23 19 48
34 56 34 8 0 21 7 28 16 8 9 30 27 49 40 19 12 52 37 72 56 20 18 49 42 63 52
14 11 63 55 108 99 108 104 112 107 124 107 5 0 16 12 23 26 8 14 22 30 32 35
10 5 18 16 18 24 0 7 7 21 16 30 20 19 11 47 -12 38 -9 -3 -21 -18 -28 -33
-12 -29 -61 -90 -71 -90 -7 0 -36 -27 -181 -167 -36 -35 -71 -63 -78 -63 -8 0
-21 -11 -30 -25 -14 -22 -57 -54 -144 -110 -9 -5 -38 -27 -64 -47 -27 -20 -56
-39 -67 -43 -10 -3 -22 -14 -27 -25 -9 -20 -29 -35 -147 -116 -38 -26 -71 -53
-74 -60 -3 -7 -14 -16 -24 -19 -11 -4 -31 -24 -45 -46 -36 -58 -54 -52 -120
44 -103 147 -287 396 -387 525 -54 69 -133 178 -174 241 -87 133 -87 134 -96
125z"/>
</g>
</svg>
