<?xml version="1.0" standalone="no"?>
<!DOCTYPE svg PUBLIC "-//W3C//DTD SVG 20010904//EN"
 "http://www.w3.org/TR/2001/REC-SVG-20010904/DTD/svg10.dtd">
<svg version="1.0" xmlns="http://www.w3.org/2000/svg"
 width="826.000000pt" height="645.000000pt" viewBox="0 0 826.000000 645.000000"
 preserveAspectRatio="xMidYMid meet">
<metadata>
Created by potrace 1.16, written by Peter Selinger 2001-2019
</metadata>
<g transform="translate(0.000000,645.000000) scale(0.100000,-0.100000)"
fill="#000000" stroke="none">
<path d="M3270 5546 c-25 -13 -57 -30 -72 -38 -31 -17 -98 -94 -98 -113 0 -7
-7 -15 -15 -19 -8 -3 -15 -11 -15 -19 0 -7 -20 -42 -45 -77 -25 -35 -45 -71
-45 -81 0 -9 -7 -22 -15 -29 -8 -7 -15 -21 -15 -31 0 -11 -9 -36 -20 -56 -11
-21 -20 -46 -20 -56 0 -10 -6 -28 -14 -40 -8 -12 -17 -56 -21 -97 -4 -41 -12
-81 -19 -89 -16 -20 -16 -568 0 -602 7 -13 17 -40 24 -59 19 -56 43 -102 70
-135 41 -50 102 -105 117 -105 7 0 13 -6 13 -12 0 -7 25 -24 55 -38 30 -14 55
-28 55 -32 0 -4 20 -17 44 -28 25 -11 48 -24 51 -30 3 -5 14 -10 25 -10 10 0
20 -6 23 -13 3 -9 30 -17 68 -21 35 -3 68 -11 73 -16 13 -13 196 -13 196 0 0
6 9 10 19 10 11 0 26 7 35 15 8 8 24 15 36 15 12 0 33 9 47 20 14 11 38 20 53
20 16 0 30 7 34 15 3 8 12 15 21 15 8 0 15 9 15 20 0 12 10 25 25 32 14 6 25
17 25 25 0 7 7 16 15 19 15 6 20 35 8 47 -8 9 -53 -32 -53 -49 0 -7 -9 -16
-20 -19 -11 -3 -20 -10 -20 -15 0 -14 -53 -60 -70 -60 -8 0 -30 -9 -48 -20
-18 -11 -39 -20 -46 -20 -8 0 -27 -6 -43 -14 -70 -35 -82 -38 -144 -33 -78 7
-189 29 -209 42 -8 5 -28 17 -45 25 -57 30 -80 45 -88 58 -4 6 -16 12 -26 12
-10 0 -24 7 -31 15 -7 8 -19 15 -26 15 -8 0 -22 9 -31 20 -10 11 -21 20 -26
20 -5 0 -33 25 -63 56 -50 51 -114 162 -114 198 0 7 -7 27 -16 45 -14 28 -16
69 -13 292 3 166 8 262 15 267 5 4 15 47 21 96 6 48 15 91 20 95 6 3 14 25 18
49 4 23 11 42 15 42 5 0 12 16 16 35 3 19 10 35 15 35 4 0 11 15 14 33 4 19
17 45 30 59 12 13 26 34 29 46 4 12 12 22 17 22 5 0 9 7 9 15 0 8 9 24 19 34
10 10 22 29 26 42 9 26 58 79 74 79 6 0 11 5 11 10 0 6 9 10 20 10 11 0 20 5
20 10 0 6 6 10 14 10 7 0 19 7 26 15 10 12 45 15 196 15 101 0 184 -4 184 -9
0 -5 55 -10 122 -13 78 -3 123 -8 126 -16 2 -6 35 -14 73 -18 39 -4 76 -13 84
-20 7 -8 25 -14 39 -14 15 0 34 -9 43 -20 10 -11 21 -20 25 -20 11 0 118 -114
118 -125 0 -3 11 -23 25 -45 14 -22 25 -45 25 -52 0 -7 8 -26 17 -43 12 -23
17 -70 22 -209 5 -139 9 -180 20 -184 21 -7 11 371 -11 413 -9 17 -26 51 -37
77 -30 65 -135 198 -157 198 -7 0 -14 7 -17 14 -3 8 -23 18 -44 22 -21 4 -47
13 -58 19 -11 7 -47 16 -79 19 -33 4 -66 12 -74 18 -7 7 -62 13 -125 16 -62 2
-116 8 -122 13 -5 5 -92 9 -195 8 -173 0 -188 -2 -230 -23z"/>
<path d="M5164 4360 c-6 -6 -160 -11 -399 -12 -252 -2 -390 -7 -390 -13 0 -6
143 -11 403 -13 266 -1 402 1 402 8 0 14 477 14 485 0 10 -16 478 -13 473 3
-4 9 -59 13 -224 15 -125 1 -223 7 -228 12 -13 13 -509 13 -522 0z"/>
</g>
</svg>
