<?xml version="1.0" standalone="no"?>
<!DOCTYPE svg PUBLIC "-//W3C//DTD SVG 20010904//EN"
 "http://www.w3.org/TR/2001/REC-SVG-20010904/DTD/svg10.dtd">
<svg version="1.0" xmlns="http://www.w3.org/2000/svg"
 width="826.000000pt" height="645.000000pt" viewBox="0 0 826.000000 645.000000"
 preserveAspectRatio="xMidYMid meet">
<metadata>
Created by potrace 1.16, written by Peter Selinger 2001-2019
</metadata>
<g transform="translate(0.000000,645.000000) scale(0.100000,-0.100000)"
fill="#000000" stroke="none">
<path d="M2917 3604 c-12 -13 4 -24 35 -24 31 0 134 -23 178 -41 14 -5 54 -13
90 -18 36 -5 108 -19 161 -30 53 -12 155 -28 225 -36 71 -8 188 -23 259 -35
72 -11 191 -23 265 -26 134 -5 164 -9 417 -59 73 -14 194 -30 270 -35 172 -12
1014 -33 1021 -25 20 20 -53 26 -438 35 -507 11 -672 22 -845 56 -243 47 -290
53 -415 58 -69 2 -201 16 -295 30 -93 14 -226 32 -295 40 -69 9 -161 24 -205
35 -44 10 -107 23 -140 29 -33 6 -96 20 -140 31 -81 21 -136 26 -148 15z"/>
</g>
</svg>
